<?xml version="1.0" encoding="utf-8"?>
<!-- Generator: Adobe Illustrator 27.3.1, SVG Export Plug-In . SVG Version: 6.00 Build 0)  -->
<svg version="1.1" id="Layer_1" xmlns="http://www.w3.org/2000/svg" xmlns:xlink="http://www.w3.org/1999/xlink" x="0px" y="0px"
	 viewBox="0 0 97 71" style="enable-background:new 0 0 97 71;" xml:space="preserve">
<g>
	<g>
		<g>
			<path d="M77.8,7.3H11.9c-3.3,0-6.1,2.7-6.1,6.1v41.2c0,3.3,2.7,6.1,6.1,6.1h65.9c3.3,0,6.1-2.7,6.1-6.1V13.4
				C83.9,10.1,81.2,7.3,77.8,7.3z M20.9,55.5h-9c-0.5,0-0.9-0.4-0.9-0.9V48h9.8V55.5L20.9,55.5z M20.9,42.8h-9.8v-6.2h9.8V42.8
				L20.9,42.8z M20.9,31.4h-9.8v-6.2h9.8V31.4L20.9,31.4z M20.9,20h-9.8v-6.6c0-0.5,0.4-0.9,0.9-0.9h9V20z M63.6,55.5H26.1V12.5
				h37.5V55.5z M78.7,54.6c0,0.5-0.4,0.9-0.9,0.9h-9V48h9.8V54.6z M78.7,42.8h-9.8v-6.2h9.8V42.8z M78.7,31.4h-9.8v-6.2h9.8V31.4z
				 M78.7,20h-9.8v-7.5h9c0.5,0,0.9,0.4,0.9,0.9V20L78.7,20z"/>
			<path d="M38.2,44.8l16.7-8.5c1.9-1,1.9-3.7,0-4.6l-16.7-8.5c-1.7-0.9-3.8,0.4-3.8,2.3v17C34.4,44.5,36.5,45.7,38.2,44.8z
				 M39.6,29.7L48,34l-8.4,4.3V29.7z"/>
		</g>
	</g>
</g>
</svg>
